<svg width="35" height="36" viewBox="0 0 35 36" fill="none" xmlns="http://www.w3.org/2000/svg">
<path d="M34.9153 25.0192C33.6946 27.7326 31.8392 30.107 29.5084 31.9387C27.1775 33.7705 24.4406 35.005 21.5325 35.5364C18.6245 36.0678 15.6319 35.8802 12.8115 34.9896C9.99118 34.0991 7.42717 32.5323 5.3394 30.4235C3.25163 28.3146 1.70241 25.7268 0.824604 22.8819C-0.0532028 20.037 -0.2334 17.0199 0.299464 14.0893C0.832328 11.1588 2.06236 8.40227 3.88405 6.05618C5.70575 3.71008 8.06475 1.84442 10.7587 0.619202C9.22766 4.02902 8.76297 7.82802 9.4265 11.5106C10.09 15.1933 11.8503 18.5849 14.4731 21.2341C17.0959 23.8833 20.4568 25.6645 24.1086 26.3407C27.7604 27.0169 31.5298 26.556 34.9153 25.0192Z" fill="#407FFF"/>
</svg>
