<svg width="750" height="794" viewBox="0 0 750 794" fill="none" xmlns="http://www.w3.org/2000/svg">
<g clip-path="url(#clip0_86_262)">
<path d="M103.012 621.795L94.0768 586.601C78.2364 579.897 62.03 574.09 45.5349 569.209L44.4079 585.565L39.8331 567.546C19.3765 561.713 5.4599 559.144 5.4599 559.144C5.4599 559.144 24.2618 630.543 63.6921 685.126L109.634 693.184L73.9436 698.326C78.9056 704.288 84.2381 709.932 89.9095 715.225C147.268 768.398 211.152 792.792 232.6 769.71C254.047 746.629 224.935 684.812 167.576 631.638C149.795 615.154 127.458 601.926 105.098 591.516L103.012 621.795Z" fill="#407FFF"/>
<path d="M187.972 583.57L198.536 548.83C188.445 534.912 177.577 521.574 165.982 508.879L156.553 522.299L161.962 504.511C147.469 488.956 136.885 479.571 136.885 479.571C136.885 479.571 116.031 550.4 121.538 617.484L156.697 648.102L123.483 634.077C124.646 641.742 126.29 649.326 128.406 656.785C149.99 731.919 192.054 785.785 222.359 777.099C252.663 768.413 259.732 700.465 238.148 625.331C231.457 602.039 219.181 579.183 205.428 558.727L187.972 583.57Z" fill="#407FFF"/>
<path d="M375 793.484C582.107 793.484 750 784.909 750 774.33C750 763.752 582.107 755.176 375 755.176C167.893 755.176 0 763.752 0 774.33C0 784.909 167.893 793.484 375 793.484Z" fill="#384561"/>
<path d="M594.091 184.551H589.831V67.9822C589.831 59.1224 588.084 50.3493 584.689 42.1638C581.295 33.9784 576.32 26.5409 570.048 20.2761C563.776 14.0112 556.329 9.04166 548.135 5.65115C539.94 2.26065 531.156 0.515598 522.286 0.515625H275.035C266.165 0.515605 257.382 2.26066 249.187 5.65117C240.992 9.04168 233.546 14.0112 227.274 20.2761C221.002 26.5409 216.026 33.9784 212.632 42.1639C209.237 50.3493 207.49 59.1224 207.49 67.9822V707.485C207.49 716.345 209.237 725.118 212.632 733.303C216.026 741.489 221.002 748.926 227.274 755.191C233.546 761.456 240.992 766.425 249.187 769.816C257.382 773.206 266.165 774.951 275.035 774.951H522.286C531.156 774.951 539.94 773.206 548.135 769.816C556.329 766.425 563.776 761.456 570.048 755.191C576.32 748.926 581.295 741.489 584.689 733.303C588.084 725.118 589.831 716.345 589.831 707.485V267.526H594.091V184.551Z" fill="#384561"/>
<path d="M575.454 68.453V707.015C575.454 720.378 570.14 733.193 560.68 742.643C551.22 752.092 538.389 757.4 525.011 757.4H276.573C263.195 757.4 250.364 752.092 240.904 742.643C231.444 733.193 226.13 720.378 226.129 707.015V68.453C226.13 55.09 231.444 42.2743 240.904 32.8253C250.364 23.3762 263.195 18.0676 276.573 18.0674H306.712C305.231 21.7024 304.667 25.6451 305.069 29.5489C305.472 33.4527 306.829 37.1978 309.021 40.4548C311.212 43.7119 314.172 46.381 317.639 48.2275C321.106 50.074 324.974 51.0413 328.903 51.0442H470.55C474.479 51.0412 478.347 50.074 481.814 48.2275C485.281 46.381 488.241 43.7118 490.432 40.4548C492.624 37.1977 493.981 33.4526 494.384 29.5489C494.786 25.6451 494.222 21.7024 492.741 18.0674H525.011C538.389 18.0676 551.22 23.3762 560.68 32.8252C570.14 42.2743 575.454 55.09 575.454 68.453Z" fill="white"/>
<path d="M575.455 569.819V707.015C575.454 720.378 570.14 733.194 560.68 742.643C551.22 752.092 538.389 757.4 525.011 757.4H276.573C263.195 757.4 250.364 752.092 240.904 742.643C231.444 733.194 226.13 720.378 226.129 707.015V583.195C247.434 558.214 273.696 537.919 303.254 523.593C332.812 509.267 365.024 501.221 397.854 499.964C430.684 498.707 463.418 504.266 493.988 516.29C524.557 528.314 552.297 546.541 575.455 569.819Z" fill="#E6EBF2"/>
<path d="M343.225 544.453H333.185L336.532 348.548H339.879L343.225 544.453Z" fill="#E6EBF2"/>
<path d="M351.592 225.209L367.8 200.189C362.993 186.927 357.442 173.947 351.172 161.309L340.691 169.764L348.99 156.955C341.081 141.405 334.858 131.608 334.858 131.608C334.858 131.608 302.353 182.772 291.493 236.942L312.292 269.048L289.267 250.473C288.447 256.783 288.025 263.138 288.004 269.502C288.004 333.658 308.981 385.667 334.858 385.667C360.735 385.667 381.713 333.658 381.713 269.502C381.713 249.613 377.208 228.804 370.994 209.556L351.592 225.209Z" fill="#E6EBF2"/>
<path d="M284.956 558.287H280.087L281.71 463.275H283.333L284.956 558.287Z" fill="#E6EBF2"/>
<path d="M289.014 403.457L296.874 391.323C294.543 384.891 291.851 378.595 288.81 372.466L283.727 376.567L287.752 370.354C283.916 362.813 280.898 358.062 280.898 358.062C280.898 358.062 265.134 382.875 259.867 409.148L269.954 424.718L258.787 415.71C258.389 418.77 258.185 421.852 258.174 424.938C258.174 456.054 268.348 481.277 280.898 481.277C293.448 481.277 303.622 456.054 303.622 424.938C303.622 415.292 301.437 405.201 298.424 395.865L289.014 403.457Z" fill="#E6EBF2"/>
<path d="M411.732 558.287H406.862L408.486 463.275H410.108L411.732 558.287Z" fill="#E6EBF2"/>
<path d="M415.789 403.457L423.65 391.323C421.319 384.891 418.627 378.595 415.586 372.466L410.503 376.567L414.527 370.354C410.692 362.813 407.674 358.062 407.674 358.062C407.674 358.062 391.909 382.875 386.642 409.148L396.729 424.718L385.563 415.71C385.165 418.77 384.96 421.852 384.95 424.938C384.95 456.054 395.124 481.277 407.674 481.277C420.224 481.277 430.398 456.054 430.398 424.938C430.398 415.292 428.213 405.201 425.199 395.865L415.789 403.457Z" fill="#E6EBF2"/>
<path d="M281.25 243.34C305.962 243.34 325.994 223.33 325.994 198.647C325.994 173.964 305.962 153.954 281.25 153.954C256.538 153.954 236.506 173.964 236.506 198.647C236.506 223.33 256.538 243.34 281.25 243.34Z" fill="#E6EBF2"/>
<path d="M443.045 249.701L524.716 251.727L535.709 154.456H443.045V249.701Z" fill="#384561"/>
<path d="M422.695 173.496L400.167 87.2198C400.167 87.2198 406.391 45.8044 421.446 46.4876C436.501 47.1709 417.538 86.9759 417.538 86.9759L443.045 161.504L422.695 173.496Z" fill="#FFB8B8"/>
<path d="M466.858 389.667L470.386 424.905C470.386 424.905 359.259 500.665 359.259 532.379C359.259 564.093 355.731 664.52 355.731 664.52L396.301 666.282L399.829 618.711C399.829 618.711 408.649 565.855 403.357 546.474L461.566 502.427C461.566 502.427 443.927 523.57 447.455 560.569C450.983 597.569 442.163 669.806 442.163 669.806L484.497 673.329C484.497 673.329 489.789 634.568 491.553 631.044C493.317 627.521 502.136 564.093 493.317 546.474L565.637 461.904C565.637 461.904 590.332 430.19 565.637 398.476L551.526 391.429L466.858 389.667Z" fill="#384561"/>
<path d="M357.495 657.472L353.967 680.377L331.036 734.995C331.036 734.995 292.23 754.376 320.453 757.9C348.676 761.423 359.259 754.376 364.551 745.566C369.843 736.757 380.426 722.662 380.426 722.662L378.662 759.661H387.482L401.938 709.125C403.352 704.287 403.598 699.182 402.655 694.231C401.712 689.28 399.606 684.622 396.511 680.641C396.442 680.553 396.372 680.465 396.301 680.377C389.246 671.567 392.774 659.234 392.774 659.234L357.495 657.472Z" fill="#384561"/>
<path d="M445.691 657.472L442.163 680.377L419.232 734.995C419.232 734.995 380.426 754.376 408.649 757.9C436.872 761.423 447.455 754.376 452.747 745.566C458.039 736.757 468.622 722.662 468.622 722.662L466.858 759.661H475.678L490.133 709.125C491.548 704.287 491.794 699.182 490.851 694.231C489.908 689.28 487.802 684.622 484.707 680.641C484.638 680.553 484.568 680.465 484.497 680.377C477.442 671.567 480.969 659.234 480.969 659.234L445.691 657.472Z" fill="#384561"/>
<path d="M488.025 208.193C507.509 208.193 523.303 192.417 523.303 172.956C523.303 153.495 507.509 137.718 488.025 137.718C468.541 137.718 452.747 153.495 452.747 172.956C452.747 192.417 468.541 208.193 488.025 208.193Z" fill="#FFB8B8"/>
<path d="M486.261 202.908L502.136 239.907L533.887 215.241C533.887 215.241 514.484 188.813 514.484 185.289L486.261 202.908Z" fill="#FFB8B8"/>
<path d="M489.789 224.05L497.315 228.669C497.315 228.669 521.629 215.792 527.758 206.707C527.758 206.707 549.762 199.384 558.582 217.003C567.401 234.622 553.29 356.191 553.29 356.191C553.29 356.191 562.11 368.524 560.346 373.81C558.582 379.096 565.637 387.905 565.637 387.905V398.476C565.637 398.476 465.094 400.238 465.094 391.429V363.239L454.511 359.715C454.511 359.715 443.927 382.619 440.399 380.858C436.872 379.096 419.232 365.001 419.232 365.001C419.232 365.001 447.455 271.621 463.33 255.764L482.733 222.288L489.789 224.05Z" fill="#407FFF"/>
<path d="M486.261 225.812C486.261 225.812 482.733 218.765 477.442 217.003C472.15 215.241 445.691 178.241 445.691 178.241L449.219 158.861L413.941 153.575C413.941 153.575 415.704 172.956 422.76 185.289C429.816 197.622 468.622 261.05 468.622 261.05L488.025 225.812L486.261 225.812Z" fill="#407FFF"/>
<path d="M513.602 365.882L492.435 429.309C492.435 429.309 448.337 478.642 473.032 478.642C497.727 478.642 510.074 434.595 510.074 434.595L540.061 371.167L513.602 365.882Z" fill="#FFB8B8"/>
<path d="M445.744 173.471C473.999 162.159 501.855 159.746 528.984 173.471V150.671C528.984 148.72 528.6 146.789 527.853 144.988C527.105 143.186 526.01 141.549 524.63 140.17C523.249 138.791 521.61 137.697 519.806 136.951C518.003 136.205 516.069 135.821 514.117 135.821H457.489C455.946 135.821 454.419 136.124 452.994 136.714C451.569 137.303 450.274 138.167 449.184 139.257C448.093 140.346 447.228 141.639 446.638 143.063C446.047 144.486 445.744 146.012 445.744 147.552V173.471Z" fill="#384561"/>
<path d="M535.651 222.288C535.651 222.288 551.745 208.672 560.455 224.29C569.165 239.907 563.874 306.859 562.11 315.668C560.346 324.477 547.998 379.096 547.998 379.096L505.664 370.286C505.664 370.286 502.136 345.62 512.72 347.382L535.651 222.288Z" fill="#407FFF"/>
<path d="M553.208 207.149C545.245 202.781 541.539 192.976 541.275 183.906C541.01 174.835 543.213 165.857 543.386 156.784C543.475 154.928 543.316 153.068 542.915 151.254C542.254 149.001 541.225 146.874 539.869 144.957C529.513 129.107 511.512 117.958 492.551 117.783C489.811 117.747 487.091 118.246 484.544 119.253C482.583 120.037 481.942 119.941 481.567 122.345C477.075 120.865 472.204 121.02 467.815 122.782C463.469 124.547 459.415 126.959 455.79 129.935C453.636 131.535 451.604 133.293 449.71 135.193C439.69 145.562 437.382 161.543 440.285 175.66C441.229 180.249 436.701 184.68 432.954 187.499C429.207 190.318 424.88 192.906 423.04 197.216C421.271 201.362 422.243 206.104 421.886 210.597C421.486 214.844 419.906 218.895 417.323 222.292C414.74 225.69 411.258 228.299 407.27 229.824C408.084 230.797 409.145 231.533 410.342 231.954C411.54 232.374 412.829 232.464 414.073 232.214C416.67 231.667 419.1 230.512 421.162 228.843C428.918 223.103 434.467 214.879 436.883 205.545C437.983 210.544 437.556 215.701 437.516 220.82C437.612 226.533 436.559 232.206 434.418 237.505C432.241 242.828 428.253 247.214 423.157 249.89C428.072 252.294 433.489 250.551 437.654 247.005C441.819 243.459 444.278 238.312 445.996 233.122C448.79 224.664 449.924 215.747 449.334 206.86C453.906 214.548 455.577 223.615 454.045 232.425C452.445 241.407 447.75 249.547 440.773 255.435C452.938 255.332 464.902 252.323 475.665 246.658C478.445 245.4 480.894 243.516 482.822 241.153C486.285 236.354 485.466 229.809 484.494 223.973C483.726 219.358 489.499 212.687 486.193 209.374C485.211 208.405 483.899 207.841 482.519 207.796C472.448 206.828 463.124 201.776 457.749 193.215C453.983 187.216 451.489 180.365 451.489 173.958C451.491 168.913 452.585 163.928 454.694 159.344C456.802 154.76 459.877 150.684 463.708 147.397C467.539 144.109 472.036 141.686 476.89 140.294C481.745 138.902 486.843 138.573 491.837 139.33C496.83 140.087 501.601 141.912 505.824 144.68C510.046 147.449 513.62 151.095 516.302 155.37C518.984 159.645 520.71 164.448 521.362 169.451C522.014 174.454 521.577 179.538 520.081 184.357C518.888 188.234 518.034 192.208 517.527 196.232C516.928 200.902 515.976 205.521 514.679 210.047C512.178 218.747 507.941 227.623 500.1 232.161C502.735 233.601 505.784 233.666 508.769 233.995C518.608 235.077 528.955 234.838 537.86 230.522C546.765 226.206 553.843 217.015 553.208 207.149Z" fill="#384561"/>
</g>
<defs>
<clipPath id="clip0_86_262">
<rect width="750" height="792.969" fill="white" transform="translate(0 0.515625)"/>
</clipPath>
</defs>
</svg>
