<svg width="700" height="402" viewBox="0 0 700 402" fill="none" xmlns="http://www.w3.org/2000/svg">
<g clip-path="url(#clip0_83_74)">
<path d="M151.671 356.543C171.776 356.543 188.075 340.266 188.075 320.188C188.075 300.109 171.776 283.832 151.671 283.832C131.565 283.832 115.267 300.109 115.267 320.188C115.267 340.266 131.565 356.543 151.671 356.543Z" fill="#F5F8FF"/>
<path d="M157.59 351.223C177.695 351.223 193.994 334.946 193.994 314.867C193.994 294.789 177.695 278.512 157.59 278.512C137.485 278.512 121.186 294.789 121.186 314.867C121.186 334.946 137.485 351.223 157.59 351.223Z" fill="#407FFF"/>
<path d="M637.323 274.641H186.908V275.868H637.323V274.641Z" fill="#384561"/>
<path d="M420.178 11.4461H260.309V8.15549H187.818V11.4461H27.2892C25.8691 11.4461 24.4629 11.7255 23.1509 12.2682C21.8389 12.8109 20.6467 13.6064 19.6426 14.6093C18.6384 15.6121 17.8418 16.8026 17.2984 18.1129C16.7549 19.4231 16.4752 20.8275 16.4752 22.2457V240.864C16.4752 243.729 17.6146 246.476 19.6426 248.501C21.6706 250.526 24.4212 251.664 27.2892 251.664H420.178C423.046 251.664 425.797 250.526 427.825 248.501C429.853 246.476 430.992 243.729 430.992 240.864V22.2457C430.992 20.8275 430.713 19.4231 430.169 18.1129C429.626 16.8026 428.829 15.6121 427.825 14.6093C426.821 13.6064 425.629 12.8109 424.317 12.2682C423.005 11.7255 421.598 11.4461 420.178 11.4461Z" fill="#384561"/>
<path d="M416.494 30.5319H30.9734V247.715H416.494V30.5319Z" fill="#407FFF"/>
<path d="M223.404 24.6088C225.588 24.6088 227.358 22.8408 227.358 20.66C227.358 18.4791 225.588 16.7112 223.404 16.7112C221.22 16.7112 219.45 18.4791 219.45 20.66C219.45 22.8408 221.22 24.6088 223.404 24.6088Z" fill="#407FFF"/>
<path opacity="0.1" d="M306.242 247.715H30.9736V30.5322L306.242 247.715Z" fill="#0A1326"/>
<path d="M91.2959 231.463C111.762 231.463 128.353 214.894 128.353 194.455C128.353 174.016 111.762 157.447 91.2959 157.447C70.8296 157.447 54.2384 174.016 54.2384 194.455C54.2384 214.894 70.8296 231.463 91.2959 231.463Z" fill="#F5F8FF"/>
<path d="M349.369 147.661H313.357V155.175H349.369V147.661Z" fill="#384561"/>
<path d="M392.905 89.1523H269.82V92.3729H392.905V89.1523Z" fill="#384561"/>
<path d="M392.905 99.351H269.82V102.572H392.905V99.351Z" fill="#384561"/>
<path d="M392.905 109.55H269.82V112.77H392.905V109.55Z" fill="#384561"/>
<path d="M392.905 119.748H269.82V122.969H392.905V119.748Z" fill="#384561"/>
<path d="M392.905 129.947H269.82V133.168H392.905V129.947Z" fill="#384561"/>
<path d="M392.905 34.9382H377.856V49.9678H392.905V34.9382Z" fill="#F5F8FF"/>
<path d="M399.893 56.9459H381.618V38.6955H399.893V56.9459ZM382.413 56.1524H399.098V39.4891H382.413V56.1524Z" fill="#384561"/>
<path d="M441.817 243.766H404.193V241.059C404.193 240.989 404.179 240.919 404.152 240.854C404.125 240.789 404.085 240.729 404.035 240.68C403.985 240.63 403.926 240.59 403.861 240.563C403.796 240.536 403.726 240.522 403.655 240.522H390.755C390.685 240.522 390.615 240.536 390.55 240.563C390.484 240.59 390.425 240.63 390.375 240.68C390.325 240.729 390.286 240.789 390.259 240.854C390.232 240.919 390.218 240.989 390.218 241.059V243.766H382.156V241.059C382.156 240.989 382.142 240.919 382.115 240.854C382.088 240.789 382.048 240.729 381.998 240.68C381.948 240.63 381.889 240.59 381.824 240.563C381.758 240.536 381.689 240.522 381.618 240.522H368.718C368.648 240.522 368.578 240.536 368.513 240.563C368.447 240.59 368.388 240.63 368.338 240.68C368.288 240.729 368.249 240.789 368.222 240.854C368.195 240.919 368.181 240.989 368.181 241.059V243.766H360.118V241.059C360.118 240.989 360.105 240.919 360.078 240.854C360.051 240.789 360.011 240.729 359.961 240.68C359.911 240.63 359.852 240.59 359.787 240.563C359.721 240.536 359.651 240.522 359.581 240.522H346.681C346.611 240.522 346.541 240.536 346.475 240.563C346.41 240.59 346.351 240.63 346.301 240.68C346.251 240.729 346.212 240.789 346.185 240.854C346.158 240.919 346.144 240.989 346.144 241.059V243.766H338.081V241.059C338.081 240.989 338.067 240.919 338.04 240.854C338.013 240.789 337.974 240.729 337.924 240.68C337.874 240.63 337.815 240.59 337.75 240.563C337.684 240.536 337.614 240.522 337.544 240.522H324.644C324.573 240.522 324.504 240.536 324.438 240.563C324.373 240.59 324.314 240.63 324.264 240.68C324.214 240.729 324.174 240.789 324.147 240.854C324.12 240.919 324.107 240.989 324.107 241.059V243.766H316.044V241.059C316.044 240.989 316.03 240.919 316.003 240.854C315.976 240.789 315.937 240.729 315.887 240.68C315.837 240.63 315.778 240.59 315.712 240.563C315.647 240.536 315.577 240.522 315.507 240.522H302.607C302.536 240.522 302.466 240.536 302.401 240.563C302.336 240.59 302.277 240.63 302.227 240.68C302.177 240.729 302.137 240.789 302.11 240.854C302.083 240.919 302.069 240.989 302.069 241.059V243.766H294.007V241.059C294.007 240.989 293.993 240.919 293.966 240.854C293.939 240.789 293.9 240.729 293.85 240.68C293.8 240.63 293.741 240.59 293.675 240.563C293.61 240.536 293.54 240.522 293.47 240.522H280.57C280.499 240.522 280.429 240.536 280.364 240.563C280.299 240.59 280.24 240.63 280.19 240.68C280.14 240.729 280.1 240.789 280.073 240.854C280.046 240.919 280.032 240.989 280.032 241.059V243.766H271.97V241.059C271.97 240.989 271.956 240.919 271.929 240.854C271.902 240.789 271.862 240.729 271.813 240.68C271.763 240.63 271.703 240.59 271.638 240.563C271.573 240.536 271.503 240.522 271.432 240.522H170.384C170.314 240.522 170.244 240.536 170.179 240.563C170.113 240.59 170.054 240.63 170.004 240.68C169.954 240.729 169.915 240.789 169.888 240.854C169.861 240.919 169.847 240.989 169.847 241.059V243.766H161.785V241.059C161.785 240.989 161.771 240.919 161.744 240.854C161.717 240.789 161.677 240.729 161.627 240.68C161.577 240.63 161.518 240.59 161.453 240.563C161.388 240.536 161.318 240.522 161.247 240.522H148.347C148.277 240.522 148.207 240.536 148.142 240.563C148.076 240.59 148.017 240.63 147.967 240.68C147.917 240.729 147.878 240.789 147.851 240.854C147.824 240.919 147.81 240.989 147.81 241.059V243.766H139.747V241.059C139.747 240.989 139.734 240.919 139.707 240.854C139.68 240.789 139.64 240.729 139.59 240.68C139.54 240.63 139.481 240.59 139.416 240.563C139.35 240.536 139.281 240.522 139.21 240.522H126.31C126.24 240.522 126.17 240.536 126.104 240.563C126.039 240.59 125.98 240.63 125.93 240.68C125.88 240.729 125.841 240.789 125.814 240.854C125.787 240.919 125.773 240.989 125.773 241.059V243.766H117.71V241.059C117.71 240.989 117.696 240.919 117.669 240.854C117.642 240.789 117.603 240.729 117.553 240.68C117.503 240.63 117.444 240.59 117.379 240.563C117.313 240.536 117.243 240.522 117.173 240.522H104.273C104.202 240.522 104.133 240.536 104.067 240.563C104.002 240.59 103.943 240.63 103.893 240.68C103.843 240.729 103.804 240.789 103.777 240.854C103.749 240.919 103.736 240.989 103.736 241.059V243.766H95.6733V241.059C95.6733 240.989 95.6594 240.919 95.6324 240.854C95.6053 240.789 95.5658 240.729 95.5159 240.68C95.4659 240.63 95.4067 240.59 95.3415 240.563C95.2763 240.536 95.2064 240.522 95.1358 240.522H82.236C82.1654 240.522 82.0955 240.536 82.0303 240.563C81.9651 240.59 81.9058 240.63 81.8559 240.68C81.806 240.729 81.7664 240.789 81.7394 240.854C81.7124 240.919 81.6985 240.989 81.6985 241.059V243.766H73.6362V241.059C73.6362 240.989 73.6223 240.919 73.5952 240.854C73.5682 240.789 73.5286 240.729 73.4787 240.68C73.4288 240.63 73.3696 240.59 73.3044 240.563C73.2391 240.536 73.1693 240.522 73.0987 240.522H60.1989C60.1283 240.522 60.0584 240.536 59.9932 240.563C59.928 240.59 59.8687 240.63 59.8188 240.68C59.7689 240.729 59.7293 240.789 59.7023 240.854C59.6753 240.919 59.6614 240.989 59.6614 241.059V243.766H51.5991V241.059C51.5991 240.989 51.5852 240.919 51.5581 240.854C51.5311 240.789 51.4915 240.729 51.4416 240.68C51.3917 240.63 51.3325 240.59 51.2673 240.563C51.202 240.536 51.1322 240.522 51.0616 240.522H38.1618C38.0912 240.522 38.0213 240.536 37.9561 240.563C37.8909 240.59 37.8316 240.63 37.7817 240.68C37.7318 240.729 37.6922 240.789 37.6652 240.854C37.6382 240.919 37.6243 240.989 37.6243 241.059V243.766H12.8998C9.47854 243.766 6.19743 245.124 3.77826 247.54C1.35908 249.956 3.25941e-06 253.232 0 256.649V262.474C9.77823e-06 265.891 1.35909 269.168 3.77827 271.583C6.19744 273.999 9.47854 275.357 12.8998 275.357H441.817C445.238 275.357 448.519 273.999 450.938 271.583C453.358 269.168 454.717 265.891 454.717 262.474V256.649C454.717 253.232 453.358 249.956 450.938 247.54C448.519 245.124 445.238 243.766 441.817 243.766Z" fill="#384561"/>
<path d="M100.266 217.57C91.0294 217.57 82.0003 214.835 74.3204 209.71C66.6405 204.585 60.6548 197.301 57.1201 188.779C53.5855 180.257 52.6606 170.88 54.4626 161.833C56.2645 152.786 60.7123 144.476 67.2435 137.953C73.7747 131.431 82.096 126.989 91.155 125.189C100.214 123.39 109.604 124.313 118.137 127.843C126.671 131.373 133.964 137.351 139.096 145.021C144.228 152.69 146.967 161.707 146.967 170.932C146.952 183.297 142.028 195.151 133.273 203.894C124.518 212.638 112.647 217.556 100.266 217.57ZM100.266 125.521C91.2724 125.521 82.4809 128.184 75.0032 133.174C67.5254 138.164 61.6972 145.256 58.2555 153.554C54.8139 161.851 53.9134 170.982 55.6679 179.791C57.4225 188.6 61.7532 196.691 68.1125 203.042C74.4719 209.393 82.5741 213.718 91.3948 215.47C100.215 217.222 109.358 216.323 117.667 212.886C125.976 209.449 133.078 203.628 138.074 196.161C143.071 188.693 145.738 179.913 145.738 170.932C145.724 158.892 140.929 147.349 132.404 138.836C123.879 130.323 112.322 125.534 100.266 125.521Z" fill="#384561"/>
<path d="M516.884 19.9706H360.192V21.1979H516.884V19.9706Z" fill="#384561"/>
<path d="M700 343.984H249.585V345.212H700V343.984Z" fill="#384561"/>
<path d="M275.086 400.441H118.393V401.669H275.086V400.441Z" fill="#384561"/>
<path d="M306.627 337.514H289.421V354.697H306.627V337.514Z" fill="#407FFF"/>
<path d="M317.073 344.878H296.18V324.014H317.073V344.878ZM297.089 343.971H316.164V324.921H297.089V343.971Z" fill="#384561"/>
<path d="M506.333 13.5006H489.128V30.6831H506.333V13.5006Z" fill="#407FFF"/>
<path d="M516.779 20.8645H495.887V0H516.779V20.8645ZM496.795 19.9574H515.871V0.907156H496.795V19.9574Z" fill="#384561"/>
<path d="M679.617 337.514H662.412V354.697H679.617V337.514Z" fill="#407FFF"/>
<path d="M690.063 344.878H669.171V324.014H690.063V344.878ZM670.079 343.971H689.155V324.921H670.079V343.971Z" fill="#384561"/>
<path d="M649.613 142.344H648.151V102.357C648.151 99.3176 647.552 96.3081 646.387 93.5002C645.222 90.6923 643.515 88.141 641.363 85.9919C639.212 83.8428 636.657 82.1381 633.845 80.975C631.033 79.812 628.02 79.2133 624.977 79.2133H540.145C537.102 79.2133 534.088 79.8119 531.277 80.975C528.465 82.1381 525.91 83.8428 523.758 85.9919C521.607 88.141 519.899 90.6923 518.735 93.5002C517.57 96.3081 516.971 99.3176 516.971 102.357V321.73C516.971 324.769 517.57 327.779 518.735 330.587C519.899 333.394 521.607 335.946 523.758 338.095C525.91 340.244 528.465 341.949 531.277 343.112C534.088 344.275 537.102 344.873 540.145 344.873H624.977C628.02 344.873 631.033 344.275 633.845 343.112C636.657 341.949 639.212 340.244 641.364 338.095C643.515 335.946 645.222 333.394 646.387 330.587C647.552 327.779 648.151 324.769 648.151 321.73V170.808H649.613V142.344Z" fill="#384561"/>
<path d="M643.216 103.717V322.77C643.217 327.354 641.394 331.751 638.149 334.993C634.904 338.234 630.502 340.056 625.912 340.057H540.671C536.081 340.056 531.68 338.234 528.434 334.993C525.189 331.751 523.367 327.354 523.367 322.77V103.717C523.368 99.1341 525.191 94.739 528.436 91.4983C531.681 88.2577 536.082 86.4369 540.671 86.4364H551.013C550.504 87.6831 550.31 89.0357 550.448 90.375C550.586 91.7143 551.051 92.9992 551.803 94.1165C552.555 95.2339 553.571 96.1493 554.761 96.7823C555.951 97.4152 557.278 97.7463 558.626 97.7462H607.226C608.574 97.7463 609.902 97.4153 611.091 96.7823C612.281 96.1494 613.297 95.2339 614.049 94.1166C614.801 92.9992 615.267 91.7143 615.405 90.375C615.542 89.0357 615.348 87.6831 614.839 86.4364H625.912C630.501 86.4369 634.902 88.2577 638.147 91.4983C641.392 94.739 643.216 99.1341 643.216 103.717Z" fill="#407FFF"/>
<path d="M595.988 230.871H570.595V238.386H595.988V230.871Z" fill="#384561"/>
<path d="M626.687 172.362H539.897V175.583H626.687V172.362Z" fill="#384561"/>
<path d="M626.687 182.561H539.897V185.782H626.687V182.561Z" fill="#384561"/>
<path d="M626.687 192.76H539.897V195.981H626.687V192.76Z" fill="#384561"/>
<path d="M626.687 202.959H539.897V206.179H626.687V202.959Z" fill="#384561"/>
<path d="M626.687 213.157H539.897V216.378H626.687V213.157Z" fill="#384561"/>
<path d="M586.324 129.593H571.274V144.622H586.324V129.593Z" fill="#F5F8FF"/>
<path d="M577.035 133.351V151.601H595.31V133.351H577.035ZM594.517 150.81H577.828V134.143H594.517V150.81Z" fill="#384561"/>
<path opacity="0.1" d="M643.216 299.377V322.77C643.217 327.354 641.394 331.751 638.149 334.993C634.904 338.234 630.502 340.056 625.912 340.057H540.671C536.081 340.056 531.68 338.234 528.434 334.993C525.189 331.751 523.367 327.354 523.367 322.77V204.818L595.182 261.478L596.411 262.447L609.77 272.984L611.017 273.972L643.216 299.377Z" fill="#0A1326"/>
<path d="M575.918 332.958C590.805 332.958 602.874 320.905 602.874 306.038C602.874 291.17 590.805 279.118 575.918 279.118C561.031 279.118 548.962 291.17 548.962 306.038C548.962 320.905 561.031 332.958 575.918 332.958Z" fill="#F5F8FF"/>
<path d="M196.74 401.669C186.166 401.669 175.83 398.538 167.039 392.671C158.247 386.805 151.395 378.467 147.349 368.711C143.303 358.956 142.244 348.221 144.307 337.865C146.37 327.508 151.461 317.995 158.938 310.529C166.414 303.062 175.94 297.977 186.31 295.917C196.68 293.857 207.429 294.915 217.198 298.955C226.966 302.996 235.316 309.839 241.19 318.619C247.064 327.399 250.199 337.721 250.199 348.28C250.183 362.435 244.546 376.005 234.524 386.014C224.502 396.023 210.913 401.653 196.74 401.669ZM196.74 296.119C186.409 296.119 176.311 299.178 167.722 304.91C159.132 310.641 152.438 318.788 148.484 328.319C144.531 337.85 143.497 348.338 145.512 358.456C147.528 368.575 152.502 377.869 159.807 385.164C167.111 392.459 176.418 397.427 186.55 399.439C196.682 401.452 207.183 400.419 216.727 396.471C226.271 392.523 234.429 385.837 240.168 377.259C245.907 368.682 248.971 358.597 248.971 348.28C248.955 334.451 243.447 321.193 233.655 311.414C223.863 301.635 210.587 296.134 196.74 296.119Z" fill="#384561"/>
<path d="M583.863 326.802C577.179 326.802 570.645 324.822 565.087 321.114C559.529 317.405 555.197 312.134 552.639 305.967C550.081 299.799 549.412 293.013 550.716 286.466C552.02 279.919 555.239 273.905 559.965 269.185C564.692 264.464 570.714 261.25 577.27 259.948C583.826 258.645 590.621 259.314 596.797 261.868C602.972 264.423 608.25 268.749 611.964 274.299C615.678 279.85 617.66 286.375 617.66 293.051C617.65 301.999 614.086 310.578 607.75 316.905C601.414 323.233 592.824 326.792 583.863 326.802ZM583.863 260.526C577.422 260.526 571.125 262.434 565.77 266.008C560.414 269.581 556.24 274.661 553.775 280.604C551.31 286.547 550.665 293.087 551.921 299.396C553.178 305.705 556.28 311.5 560.834 316.049C565.389 320.597 571.192 323.695 577.51 324.95C583.827 326.205 590.375 325.561 596.326 323.099C602.277 320.637 607.364 316.469 610.942 311.12C614.521 305.771 616.431 299.483 616.431 293.051C616.421 284.428 612.987 276.161 606.881 270.063C600.776 263.966 592.498 260.536 583.863 260.526Z" fill="#384561"/>
</g>
<defs>
<clipPath id="clip0_83_74">
<rect width="700" height="401.669" fill="white"/>
</clipPath>
</defs>
</svg>
