<svg width="150" height="32" viewBox="0 0 150 32" fill="none" xmlns="http://www.w3.org/2000/svg">
<path d="M27.858 19.9621C26.884 22.127 25.4036 24.0215 23.5439 25.483C21.6842 26.9445 19.5005 27.9295 17.1802 28.3535C14.8599 28.7775 12.4723 28.6278 10.222 27.9172C7.97169 27.2067 5.92593 25.9566 4.26016 24.274C2.59439 22.5914 1.35831 20.5267 0.657929 18.2568C-0.0424491 15.9869 -0.186223 13.5797 0.238934 11.2415C0.664092 8.90327 1.6455 6.70392 3.09898 4.83203C4.55246 2.96015 6.43464 1.47159 8.58411 0.494019C7.3625 3.21462 6.99173 6.24574 7.52114 9.184C8.05055 12.1223 9.45504 14.8283 11.5477 16.9421C13.6404 19.0558 16.3219 20.477 19.2356 21.0165C22.1492 21.556 25.1568 21.1882 27.858 19.9621Z" fill="#407FFF"/>
<path d="M44.0199 1.39062C47.2121 1.39062 49.8817 2.50581 52.0286 4.73617C54.1755 6.96653 55.2463 9.73593 55.2409 13.0444C55.2409 16.3515 54.1701 19.1175 52.0286 21.3425C49.887 23.5674 47.2175 24.6826 44.0199 24.688H34.4532V1.39062H44.0199ZM44.0199 18.2378C44.6444 18.2546 45.265 18.1336 45.8383 17.8833C46.4116 17.633 46.9236 17.2594 47.3386 16.7886C48.2086 15.8225 48.6436 14.5745 48.6436 13.0444C48.6436 11.5143 48.2086 10.2655 47.3386 9.29809C46.9236 8.82734 46.4116 8.45372 45.8383 8.2034C45.265 7.95308 44.6444 7.83211 44.0199 7.84896H41.3778V18.2378H44.0199Z" fill="#0A1326"/>
<path d="M57.5598 24.6961V8.04934H63.6712V24.6961C63.6712 27.3151 63.002 29.2074 61.6635 30.3732C60.3251 31.539 58.2417 32.0436 55.4136 31.8871V26.3598C56.8457 26.4933 57.5611 25.9388 57.5598 24.6961ZM60.6316 6.78439C60.1852 6.78973 59.7425 6.70268 59.3309 6.52861C58.9192 6.35455 58.5474 6.09718 58.2384 5.77243C57.9197 5.46485 57.666 5.09539 57.4927 4.68634C57.3194 4.27728 57.2301 3.83709 57.2301 3.3923C57.2301 2.9475 57.3194 2.50731 57.4927 2.09826C57.666 1.6892 57.9197 1.31975 58.2384 1.01216C58.5476 0.687703 58.9195 0.430525 59.3311 0.256483C59.7427 0.0824403 60.1853 -0.00477887 60.6316 0.000201908C61.2986 -0.00645823 61.9524 0.188479 62.5085 0.559877C63.0647 0.931275 63.4977 1.4621 63.7518 2.08392C64.0059 2.70573 64.0693 3.39001 63.934 4.04853C63.7987 4.70705 63.4708 5.3096 62.9926 5.7785C62.6886 6.10098 62.3223 6.35718 61.9162 6.53124C61.5101 6.7053 61.0728 6.79353 60.6316 6.79046V6.78439Z" fill="#0A1326"/>
<path d="M71.6959 18.4705C72.2233 19.5797 73.3463 20.1342 75.0649 20.1342C76.0977 20.1283 77.0944 19.7507 77.8756 19.0696L81.8709 22.4658C80.2206 24.263 77.887 25.1616 74.8701 25.1616C72.0513 25.1616 69.7886 24.3352 68.0821 22.6823C66.3756 21.0295 65.523 18.9482 65.5243 16.4385C65.5243 13.9086 66.3555 11.8004 68.0178 10.1138C69.6802 8.42716 71.7769 7.58386 74.308 7.58386C76.8176 7.58386 78.8815 8.4103 80.4997 10.0632C82.1179 11.716 82.9263 13.796 82.925 16.3029C82.9252 17.0324 82.8362 17.759 82.66 18.4665L71.6959 18.4705ZM71.5956 14.5077H77.1448C76.7701 13.176 75.8786 12.5101 74.4706 12.5101C73.0371 12.5101 72.0787 13.176 71.5956 14.5077Z" fill="#0A1326"/>
<path d="M95.2863 7.58386C97.5082 7.58386 99.3245 8.41637 100.735 10.0814C102.146 11.7464 102.851 13.8432 102.849 16.3717C102.849 18.903 102.145 21.0004 100.735 22.6641C99.3258 24.3278 97.5095 25.1603 95.2863 25.1616C93.3911 25.1616 91.9154 24.5072 90.8594 23.1984V31.3548H84.7399V8.04937H90.8494V9.54707C91.9081 8.23826 93.3871 7.58386 95.2863 7.58386ZM91.6725 18.6041C91.9506 18.8886 92.2821 19.1145 92.6476 19.2687C93.0131 19.4229 93.4054 19.5023 93.8017 19.5023C94.1979 19.5023 94.5902 19.4229 94.9557 19.2687C95.3212 19.1145 95.6527 18.8886 95.9308 18.6041C96.4547 17.9805 96.7421 17.1899 96.7421 16.3727C96.7421 15.5556 96.4547 14.765 95.9308 14.1414C95.6527 13.8569 95.3212 13.631 94.9557 13.4768C94.5902 13.3226 94.1979 13.2432 93.8017 13.2432C93.4054 13.2432 93.0131 13.3226 92.6476 13.4768C92.2821 13.631 91.9506 13.8569 91.6725 14.1414C91.1487 14.765 90.8612 15.5556 90.8612 16.3727C90.8612 17.1899 91.1487 17.9805 91.6725 18.6041Z" fill="#0A1326"/>
<path d="M115.289 7.58383C117.095 7.58383 118.542 8.21057 119.632 9.46405C120.721 10.7175 121.266 12.5876 121.266 15.0744V24.6961H115.163V15.7402C115.163 14.256 114.48 13.5139 113.115 13.5139C112.388 13.5139 111.832 13.7467 111.448 14.2122C111.063 14.6777 110.87 15.3233 110.87 16.143V24.7001H104.755V1.39062H110.864V9.68871C111.876 8.28546 113.351 7.58383 115.289 7.58383Z" fill="#0A1326"/>
<path d="M126.807 6.79048C126.361 6.79574 125.918 6.70865 125.506 6.5346C125.094 6.36055 124.721 6.10323 124.412 5.77852C124.094 5.47049 123.841 5.10089 123.668 4.69189C123.495 4.2829 123.406 3.84293 123.406 3.39838C123.406 2.95384 123.495 2.51387 123.668 2.10487C123.841 1.69588 124.094 1.32628 124.412 1.01825C124.722 0.693925 125.094 0.436855 125.506 0.262833C125.918 0.0888108 126.361 0.00150994 126.807 0.00628969C127.474 -0.000741887 128.127 0.193484 128.683 0.563966C129.239 0.934449 129.672 1.46423 129.927 2.0851C130.182 2.70598 130.247 3.38953 130.113 4.04776C129.979 4.706 129.653 5.30878 129.176 5.77852C128.871 6.10181 128.503 6.35845 128.096 6.53253C127.688 6.70661 127.25 6.79441 126.807 6.79048ZM123.735 24.7022V8.04936H129.845V24.6961L123.735 24.7022Z" fill="#0A1326"/>
<path d="M150 24.6961H143.27L140.596 20.9276L137.91 24.6961H131.174L137.219 16.1956L131.439 8.05743H138.175L140.584 11.4536L142.993 8.05743H149.729L143.949 16.1936L150 24.6961Z" fill="#0A1326"/>
</svg>
