<svg width="1920" height="376" viewBox="0 0 1920 376" fill="none" xmlns="http://www.w3.org/2000/svg">
<path d="M-411 232.8L-367.779 258.626C-324.721 284.938 -237.794 335.863 -152 323.374C-65.7206 310.4 21.2062 232.8 107 226.374C193.279 219.463 280.206 284.938 366 323.374C452.279 362.538 539.206 374.663 625 329.8C711.279 284.938 798.206 180.663 884 168.174C970.279 155.2 1057.21 232.8 1143 278.026C1229.28 323.738 1316.21 335.863 1402 342.774C1488.28 349.2 1575.21 349.2 1661 329.8C1747.28 310.4 1834.21 271.6 1876.29 252.2L1920 232.8V388H1876.78C1833.72 388 1746.79 388 1661 388C1574.72 388 1487.79 388 1402 388C1315.72 388 1228.79 388 1143 388C1056.72 388 969.794 388 884 388C797.721 388 710.794 388 625 388C538.721 388 451.794 388 366 388C279.721 388 192.794 388 107 388C20.7206 388 -66.2063 388 -152 388C-238.279 388 -325.206 388 -367.294 388H-411V232.8Z" fill="#3973E6"/>
<g clip-path="url(#clip0_3_875)">
<g filter="url(#filter0_d_3_875)">
<path d="M0 248L35.6 269.3C71.0667 291 142.667 333 213.333 322.7C284.4 312 356 248 426.667 242.7C497.733 237 569.333 291 640 322.7C711.067 355 782.667 365 853.333 328C924.4 291 996 205 1066.67 194.7C1137.73 184 1209.33 248 1280 285.3C1351.07 323 1422.67 333 1493.33 338.7C1564.4 344 1636 344 1706.67 328C1777.73 312 1849.33 280 1884 264L1920 248V376H1884.4C1848.93 376 1777.33 376 1706.67 376C1635.6 376 1564 376 1493.33 376C1422.27 376 1350.67 376 1280 376C1208.93 376 1137.33 376 1066.67 376C995.6 376 924 376 853.333 376C782.267 376 710.667 376 640 376C568.933 376 497.333 376 426.667 376C355.6 376 284 376 213.333 376C142.267 376 70.6667 376 36 376H0V248Z" fill="#407FFF"/>
</g>
</g>
<defs>
<filter id="filter0_d_3_875" x="-50" y="118.51" width="2020" height="282.49" filterUnits="userSpaceOnUse" color-interpolation-filters="sRGB">
<feFlood flood-opacity="0" result="BackgroundImageFix"/>
<feColorMatrix in="SourceAlpha" type="matrix" values="0 0 0 0 0 0 0 0 0 0 0 0 0 0 0 0 0 0 127 0" result="hardAlpha"/>
<feOffset dy="-25"/>
<feGaussianBlur stdDeviation="25"/>
<feComposite in2="hardAlpha" operator="out"/>
<feColorMatrix type="matrix" values="0 0 0 0 0.0392157 0 0 0 0 0.0745098 0 0 0 0 0.14902 0 0 0 0.25 0"/>
<feBlend mode="normal" in2="BackgroundImageFix" result="effect1_dropShadow_3_875"/>
<feBlend mode="normal" in="SourceGraphic" in2="effect1_dropShadow_3_875" result="shape"/>
</filter>
<clipPath id="clip0_3_875">
<rect width="1920" height="320" fill="white" transform="translate(0 56)"/>
</clipPath>
</defs>
</svg>
